<svg xmlns="http://www.w3.org/2000/svg" width="512" height="512" viewBox="0 0 512 512">
  <defs><linearGradient id="bg" x1="0" y1="0" x2="0" y2="1">
    <stop offset="0" stop-color="#20232b"/><stop offset="1" stop-color="#12141a"/></linearGradient></defs>
  <rect width="512" height="512" fill="url(#bg)"/>
  <ellipse cx="256" cy="300" rx="150" ry="150" fill="#F5A623" opacity="0.10"/>
  <g transform="translate(155,109) scale(4.6)">
    <path d="M9 16 L4 3 L17 11 Z" fill="#d98a1e"/><path d="M35 16 L40 3 L27 11 Z" fill="#d98a1e"/>
    <path d="M10 14 L7 6 L15 11 Z" fill="#f7b8c0"/><path d="M34 14 L37 6 L29 11 Z" fill="#f7b8c0"/>
    <rect x="6" y="10" width="32" height="50" rx="13" fill="#F5A623"/>
    <rect x="11" y="15" width="22" height="12" rx="5" fill="#bfe0f2"/>
    <circle cx="17" cy="21" r="2.4" fill="#1a1c20"/><circle cx="27" cy="21" r="2.4" fill="#1a1c20"/>
    <circle cx="12" cy="13" r="2.2" fill="#fff6c2"/><circle cx="32" cy="13" r="2.2" fill="#fff6c2"/>
    <rect x="3" y="20" width="4" height="12" rx="2" fill="#222"/><rect x="37" y="20" width="4" height="12" rx="2" fill="#222"/>
    <rect x="3" y="40" width="4" height="12" rx="2" fill="#222"/><rect x="37" y="40" width="4" height="12" rx="2" fill="#222"/>
  </g>
</svg>
